<?xml version="1.0" encoding="UTF-8"?>
<svg id="Layer_1" data-name="Layer 1" xmlns="http://www.w3.org/2000/svg" viewBox="0 0 53.19 47.1">
  <defs>
    <style>
      .cls-1 {
        fill: #f38fa4;
        stroke: #f38fa4;
        stroke-miterlimit: 10;
      }

      .cls-2 {
        fill: #fff;
        stroke-width: 0px;
      }
    </style>
  </defs>
  <path class="cls-1" d="M23.71,46.6s15.78-.21,21.49-2.72c1.69-.74,3.75-3.19,4.47-4.02,1.52-1.77,2.16-4.46,2.16-4.46l.38-.78.34-.83-.47-.98-.3-1.06c-.03-.13-.11-.52-.11-.52,0,0-.43-1.62-1.35-2.74-1.9-2.33-6.03-6.33-9.7-9.99-2.03-2.03-4.36-10.02-4.36-10.02L.11.49"/>
  <g id="pvsuXC">
    <path class="cls-2" d="M35.39,32.6c-.56.17-.85.48-.92.87-.07.39.27.81,1,.98.12.03.23.06.35.08.47.08.87.02,1.26-.12.67-.24,1.28-.51,1.74-.91.27-.23.59-.44,1.02-.56.11-.03.22-.05.35-.03.29.03.58.06.88.06.49,0,.93.17,1.36.33.44.16.88.32,1.34.45.32.09.66.11.99.13.27.02.54,0,.81,0,.52,0,1.02-.1,1.53-.12.59-.03,1.18-.08,1.8.01.07.01.16,0,.18.06.02.06-.05.09-.13.11-.25.06-.53.06-.79.06-.45,0-.88.03-1.3.1-.41.07-.81.14-1.21.23-.36.08-.75.13-1.15.13-.24,0-.46.05-.71.03-.56-.05-1.06-.22-1.53-.43-.38-.17-.79-.32-1.2-.44-.4-.11-.81-.22-1.24-.24-.23-.01-.44.02-.63.08-.29.09-.29.28-.26.46.03.17.11.33.18.5.07.19.33.28.55.37.3.12.61.15.93.09.26-.05.53-.09.78-.16.32-.09.68-.06,1.03-.08.27-.02.55,0,.83-.02.26-.03.53.04.7.21.15.15.11.23-.16.21-.23,0-.44.02-.66.02-.43,0-.81.11-1.2.19-.23.05-.43.14-.66.19-.22.05-.27.18-.33.31-.02.05,0,.11.08.14.09.04.16,0,.22-.02.02-.01.05-.02.06-.04.21-.28.65-.28,1.06-.32.27-.03.56-.03.84-.02.3,0,.57-.05.84-.1.21-.04.31-.16.46-.25.22-.13.47-.25.58-.45.04-.06.13-.09.24-.09.38-.02.77.03,1.15.08.16.02.21.09.11.15-.53.32-1.09.63-1.73.86-.64.23-1.36.37-2.1.45-.25.03-.51.05-.76.08-.22.02-.44,0-.65-.08-.34-.12-.71-.2-1.07-.27-.25-.05-.5-.02-.75-.03-.51,0-.97.1-1.42.22-.38.1-.72.23-1.01.41-.21.13-.26.29-.24.46.01.13.05.26.09.39.06.17.24.32.48.41.26.1.54.18.83.23.32.06.63.03.91-.05.56-.16,1.02-.41,1.45-.68.33-.21.69-.38,1.15-.48.8-.17,1.6-.36,2.39-.55.12-.03.22-.04.34,0,.15.06.19.13.11.21-.15.14-.27.3-.41.44-.11.11-.28.18-.49.22-.27.05-.56.06-.86.05-.35-.01-.71-.07-1.06-.05-.08,0-.17,0-.18.06-.01.07.05.11.13.15.07.04.16.03.24.04.33.04.67.07,1,.11.07,0,.14.01.21.03.26.05.31.13.18.27-.08.08-.18.14-.32.18-.4.09-.82.17-1.26.2-.38.02-.73.1-1.08.18-.14.03-.27.08-.41.09-.45.05-.67.26-.83.5-.07.1-.17.19-.18.31-.01.18.09.32.34.42.12.05.24.09.36.13.35.12.71.06.84-.16.12-.21.3-.39.47-.57.14-.15.34-.26.55-.37.12-.07.27-.1.45-.12.23-.02.43-.08.62-.15.12-.04.23-.09.35-.13.1-.03.16.01.17.07.02.1-.05.17-.19.21-.42.11-.74.31-1.07.49-.29.16-.55.34-.74.56-.04.04-.09.09-.1.13-.05.22-.25.39-.43.56-.08.08-.2.13-.33.17-.42.12-.86.2-1.34.2-.3,0-.59.03-.81.17-.12.08-.21.16-.28.26-.1.14-.28.21-.49.27-.1.03-.21.04-.29.08-.27.12-.6.14-.93.16-.13,0-.26.01-.39.02-.06,0-.12,0-.17.03-.09.04-.19.08-.15.16.03.07.14.07.23.08.62.05,1.21.04,1.76-.15.34-.12.61-.3.92-.43.17-.07.32-.15.51-.21.05-.01.09-.05.15,0,.04.03.01.06-.01.09-.12.12-.2.25-.29.38-.17.27-.29.56-.44.83-.1.18-.16.39-.35.54-.08.06-.09.14-.14.2-.05.06,0,.13.08.18.09.05.19.04.25.01.2-.11.44-.2.48-.4-.03-.06-.22-.09-.15-.15.09-.07.18.04.26.07.02,0,.03.01.05.02.03-.06.07-.13.11-.19.11-.2.14-.42.22-.62.11-.3.34-.55.55-.82.06-.07.14-.13.32-.14-.05.2-.08.38-.15.55-.06.16-.07.32-.08.47,0,.11.07.16.2.17.14.01.19-.02.22-.13.02-.1.02-.21.05-.3.06-.2.14-.41.18-.61.03-.12.04-.26.18-.35.21-.14.39-.29.57-.44.2-.17.42-.33.55-.54.13-.23.3-.44.57-.62.17-.11.32-.24.57-.3.15-.04.21-.01.2.09-.02.21-.05.42-.06.63,0,.14-.09.24-.23.33-.21.14-.42.29-.67.4-.22.1-.38.24-.51.4-.09.12-.2.23-.27.35-.18.28-.4.55-.38.88.02.27.13.51.52.67.38.15.78.21,1.16.08.43-.14.72-.37.85-.69.07-.18.09-.36.15-.54.09-.31.15-.63,0-.96-.14-.32-.13-.63-.13-.95,0-.33.06-.65.1-.98,0-.04-.03-.09.06-.11.09.06.12.14.16.22.14.22.31.42.48.63.15.18.42.26.7.23.11-.01.15-.04.08-.12-.28-.33-.54-.65-.81-.98-.19-.24-.45-.47-.35-.76.04-.12.1-.23.12-.35,0-.06.08-.1.18-.1.11,0,.1.07.12.12.1.18.12.36.21.54.03.06.03.14.16.15.14,0,.17-.07.21-.13.02-.03.02-.08.02-.11.03-.17-.02-.33-.02-.5,0-.25-.06-.5-.08-.75,0-.12,0-.23.11-.33.11-.11.21-.22.3-.34.08-.12.2-.21.34-.3.3-.2.68-.36.97-.57.04-.03.1-.08.21-.05.04.06,0,.11,0,.17,0,.25-.14.47-.14.72,0,.18-.06.36-.14.52-.21.41-.47,1.63-.73,1.19-.12-.19-.27.34-.18.56.07.18.22.32.4.45.19.14.44.2.69.15.34-.07.64-.18.73-.43l.05-.13c.26-.21.28-.46.14-.72-.15-.28-.35-.54-.54-.81-.08-.11-.12-.22-.1-.34.03-.23.06-.45.19-.67.22-.38.57-.69,1.07-.91.46-.21.99-.36,1.57-.42.49-.06,2.12-.31,2.63-.29,0-.04.02-.08,0-.11-.14-.32-.03-.62-.02-.93-.24.04-1.66.19-1.9.17-.45-.04-.91-.06-1.36-.1-.62-.06-1.18-.23-1.71-.46-.7-.3-1.3-.69-1.92-1.06-.52-.32-.94-.69-1.39-1.03-.1-.08-.18-.17-.23-.26-.19-.35-.32-.7-.36-1.05-.08-.62-.05-1.24.02-1.85.03-.28.22-.53.3-.8.06-.19.16-.37.17-.58,0-.05.01-.1-.02-.15-.03-.05-.04-.11-.15-.12-.09,0-.15.03-.17.08-.06.15-.18.28-.25.42-.11.23-.21.47-.33.7-.05.1-.07.21-.23.29-.07-.12-.08-.22-.07-.32.04-.36.08-.73.12-1.09.01-.11,0-.22-.01-.33-.02-.16-.08-.29-.3-.4-.27-.13-.23-.3-.16-.45.07-.16.07-.34.14-.5.05-.1,0-.23-.06-.34-.02-.05-.06-.09-.14-.1-.07,0-.1.03-.13.06-.11.1-.17.22-.19.35-.04.25-.06.51-.09.77-.02.18.07.35.12.52.03.11.08.22.12.33.03.06.03.12.02.17,0,.05-.04.08-.12.09-.08,0-.13-.03-.17-.07-.02-.03-.04-.06-.06-.09-.14-.22-.26-.45-.36-.68-.03-.06-.04-.13-.15-.17-.01.04-.02.09-.04.13-.05.17-.17.3-.41.37,0,.01,0,.02,0,.04.19.1.28.24.4.36.27.31.53.63.78.95.07.08.12.17.15.26,0,.03.03.05,0,.07-.04.02-.1,0-.14-.01-.26-.11-.53-.22-.79-.34-.2-.09-.4-.18-.64-.19-.16-.01-.32-.03-.4.07-.08.09-.04.2.06.3.19.17.42.33.69.44.4.18.79.36,1.18.55.08.04.13.08.18.14.23.26.34.54.38.83.03.22.06.44.15.66.04.09.02.17-.01.25-.02.05-.08.09-.17.09-.09,0-.11-.05-.15-.09-.19-.26-.53-.45-.79-.68-.2-.18-.42-.34-.63-.51-.16-.13-.35-.25-.55-.37-.55-.3-.86-.67-.92-1.12-.03-.21-.09-.43-.19-.63-.06-.14-.24-.25-.49-.29-.55-.09-1.04-.07-1.47.14-.07.03-.15.05-.23.08-.18.07-.28.17-.28.31,0,.22-.11.42-.13.64-.02.2.08.37.25.56.21.23.48.31.83.33.09,0,.19.02.27.05.36.13.73.13,1.09.09.5-.05.92.12,1.09.45.23.44.36.56,1.04.75.24.07.43.16.61.28.31.21.61.41.92.62.12.08.29.19.19.29-.11.11-.3.02-.47-.02-.37-.08-.76-.14-1.12-.23-.69-.17-1.28-.44-1.83-.78-.32-.2-.51-.45-.81-.65-.2-.14-.41-.28-.62-.41-.17-.11-.38-.12-.57-.07-.29.08-.54.19-.77.33-.14.08-.17.21-.2.32-.04.15-.04.31-.06.46-.01.12.06.21.21.3.31.19.66.25,1.05.26.46.01.92.02,1.38.02.09,0,.19,0,.27.04.4.16.84.28,1.19.5.24.15.51.23.83.26.26.02.53.04.79.06.57.05,1.13.16,1.65.37.72.31,1.42.64,2.11.97.5.24,1.03.46,1.49.73.05.03.12.05.1.09-.02.05-.1.03-.15.03-.18,0-.36,0-.54-.02-.41-.07-.83-.07-1.24-.09-.59-.04-1.01-.26-1.4-.53-.08-.05-.15-.12-.22-.17-.2-.15-.39-.3-.36-.51.01-.1-.07-.2-.12-.31-.04-.09-.12-.11-.25-.07-.25.07-.25.09-.15.28.05.09.09.18.05.27-.02.05-.07.06-.13.02-.06-.04-.13-.08-.14-.13-.06-.24-.35-.39-.61-.53-.3-.15-.64-.26-1.02-.29-.24-.02-.39.05-.41.2-.04.26.08.52.26.76.05.07.15.14.27.17.23.05.47.11.71.13.16.01.31.03.47.06.48.09.94.21,1.38.37.27.1.51.24.75.37.04.02.1.06.06.1-.03.03-.09.03-.14.02-.54-.06-1.09-.09-1.61-.26-.22-.07-.46-.12-.69-.18-.15-.04-.28-.09-.41-.15-.62-.27-1.22-.56-1.79-.88-.26-.14-.59-.23-.9-.33-.55-.17-1.1-.33-1.66-.47-.29-.08-.52-.21-.73-.35-.3-.2-.5-.44-.71-.67-.1-.11-.12-.25-.16-.38-.05-.16-.1-.32-.14-.48,0-.01,0-.03,0-.04-.04-.08-.11-.17-.26-.19-.14-.01-.21.06-.25.13-.07.14-.09.3-.06.46.06.38.3.72.69,1.03.18.15.4.29.54.45,0,0,.01,0,.02,0,0,0,0,0,0,.01,0,0-.01-.01-.02-.02-.24-.02-.45-.1-.66-.17-.37-.11-.73-.22-1.13-.26-.25-.02-.47.02-.7.05-.15.02-.3.26-.26.37.02.05.07.06.13.07.2.04.38,0,.56-.02.36-.06.69,0,1.01.14.06.03.11.06.12.11.35-.12.73-.15,1.15-.11.69.06,1.32.24,1.95.45.09.03.16.07.17.13.1.01.11.07.14.11.13.03.25.07.37.1.12.03.21.09.29.16.14.13.07.25-.15.29-.14.02-.29.03-.44.03-.58,0-1.15-.03-1.7-.2-.35-.1-.69-.12-1.04-.08-.45.04-.91.08-1.31.2"/>
  </g>
  <path class="cls-1" d="M51.32,31.05c.07.34.68,1.67.76,1.74.2.19.52-.03.51.29,0,.2.1.26.1.49,0,.07,0,.4-.09.56-.1.19-.44.18-.51.32-.17.36-.72,1.38-.72,1.38"/>
</svg>