<?xml version="1.0" encoding="UTF-8" standalone="no"?>
<svg
   xmlns:dc="http://purl.org/dc/elements/1.1/"
   xmlns:cc="http://creativecommons.org/ns#"
   xmlns:rdf="http://www.w3.org/1999/02/22-rdf-syntax-ns#"
   xmlns:svg="http://www.w3.org/2000/svg"
   xmlns="http://www.w3.org/2000/svg"
   xmlns:sodipodi="http://sodipodi.sourceforge.net/DTD/sodipodi-0.dtd"
   xmlns:inkscape="http://www.inkscape.org/namespaces/inkscape"
   sodipodi:docname="eppendorf.svg"
   inkscape:version="1.0beta1 (32d4812, 2019-09-19)"
   id="svg8"
   version="1.1"
   viewBox="0 0 210 297"
   height="297mm"
   width="210mm">
  <defs
     id="defs2" />
  <sodipodi:namedview
     inkscape:window-maximized="1"
     inkscape:window-y="23"
     inkscape:window-x="0"
     inkscape:window-height="1113"
     inkscape:window-width="1920"
     showgrid="false"
     inkscape:document-rotation="0"
     inkscape:current-layer="layer1"
     inkscape:document-units="mm"
     inkscape:cy="560"
     inkscape:cx="400"
     inkscape:zoom="1.979899"
     inkscape:pageshadow="2"
     inkscape:pageopacity="0.0"
     borderopacity="1.0"
     bordercolor="#666666"
     pagecolor="#ffffff"
     id="base" />
  <metadata
     id="metadata5">
    <rdf:RDF>
      <cc:Work
         rdf:about="">
        <dc:format>image/svg+xml</dc:format>
        <dc:type
           rdf:resource="http://purl.org/dc/dcmitype/StillImage" />
        <dc:title></dc:title>
      </cc:Work>
    </rdf:RDF>
  </metadata>
  <g
     id="layer1"
     inkscape:groupmode="layer"
     inkscape:label="Camada 1">
    <path
       inkscape:connector-curvature="0"
       id="path990"
       d="m 129.49875,212.37613 c -2.82855,-0.4982 -5.12347,-2.24873 -6.13464,-4.67942 -0.41902,-1.00728 -0.30921,-0.31852 -2.30057,-14.42955 -0.45904,-3.25277 -1.0423,-7.37937 -1.29613,-9.17022 -0.40836,-2.88109 -1.41452,-10.00839 -2.49062,-17.64271 l -0.36061,-2.55836 -0.20473,-14.22048 c -0.1126,-7.82127 -0.2632,-18.13776 -0.33467,-22.92555 -0.0715,-4.78778 -0.13027,-8.96736 -0.13066,-9.28794 -6.4e-4,-0.57274 -0.004,-0.5842 -0.18346,-0.65934 -0.71311,-0.29842 -1.32519,-0.61789 -1.81078,-0.94512 -0.31683,-0.21351 -0.71314,-0.41942 -0.90258,-0.46898 -0.72757,-0.19029 -2.10529,-0.26617 -4.84542,-0.26685 l -2.72449,-6.3e-4 -1.7813,0.515 c -0.97972,0.28324 -1.83748,0.51499 -1.90614,0.51499 -0.13892,0 -5.483951,-2.99934 -5.661575,-3.17697 -0.06179,-0.0618 -0.341595,-0.6207 -0.621786,-1.24201 -0.280191,-0.62132 -0.543555,-1.17157 -0.585252,-1.22278 -0.08734,-0.10727 -1.274558,-1.01149 -1.468054,-1.11811 -0.0848,-0.0467 -0.185902,-0.0498 -0.293306,-0.009 -0.295582,0.11238 -1.359617,0.14565 -1.941688,0.0607 -3.787904,-0.5528 -8.874933,-3.88518 -12.228745,-8.01076 -1.815666,-2.233477 -4.041525,-6.090407 -5.43176,-9.412047 -1.210307,-2.89174 -2.70788,-7.42032 -3.960261,-11.97562 -0.338941,-1.23283 -0.360144,-1.47994 -0.170224,-1.98393 0.581104,-1.54206 2.847074,-3.15231 5.914539,-4.203 1.709921,-0.58569 3.402723,-0.85165 4.535013,-0.7125 1.122873,0.13799 1.127379,0.14053 3.462426,1.95431 1.165686,0.90546 2.170827,1.64629 2.233644,1.64629 0.06282,0 0.261008,-0.045 0.440419,-0.0999 0.498346,-0.15269 1.392976,-0.19678 2.029248,-0.10001 5.491419,0.8352 12.106152,8.78272 13.185202,15.84186 0.15601,1.02062 0.10795,2.90745 -0.0933,3.66207 -0.21868,0.82005 -0.61198,1.55611 -1.10917,2.0758 -0.23586,0.24653 -0.428836,0.49936 -0.428836,0.56183 0,0.0625 0.04648,0.287 0.103296,0.49893 0.0665,0.24806 0.10414,0.68126 0.10565,1.215967 0.002,0.68393 -0.028,0.94773 -0.169742,1.49359 -0.306627,1.18125 -1.005886,2.41057 -2.008468,3.53096 -0.232632,0.25997 -0.422967,0.50493 -0.422967,0.54435 0,0.0699 1.597812,1.00974 1.716744,1.00974 0.03299,0 0.486467,-0.17942 1.007743,-0.39871 0.52127,-0.21929 1.01299,-0.3987 1.0927,-0.3987 0.14076,0 5.11639,2.11433 5.38978,2.29032 0.0919,0.0592 0.19822,0.29705 0.32585,0.72927 0.10707,0.36255 0.23556,0.66611 0.29551,0.69815 0.25601,0.1368 2.33293,0.37808 4.65415,0.54067 l 1.15908,0.0812 0.10329,-0.15965 c 1.33935,-2.07029 6.53505,-3.51887 14.27177,-3.97902 1.44462,-0.0859 5.46829,-0.0865 6.99652,-10e-4 5.38968,0.30144 9.92737,1.20648 12.55604,2.50428 0.78376,0.38695 0.95617,0.50343 1.39906,0.94519 0.42138,0.42029 0.52653,0.56995 0.63416,0.90255 0.071,0.21928 0.15362,0.41667 0.18367,0.43863 0.0301,0.022 0.0451,0.73963 0.0335,1.59482 -0.0202,1.4894 -0.0279,1.56888 -0.18271,1.88715 -0.33789,0.69479 -1.34188,1.46176 -2.62394,2.00447 -0.42146,0.17841 -0.58041,0.27931 -0.60115,0.3816 -0.0155,0.0765 -0.13345,10.73963 -0.2621,23.69589 l -0.23388,23.55683 -0.3946,2.62481 c -0.38249,2.54426 -0.61791,4.14433 -1.59855,10.86472 -3.56028,24.39885 -4.13909,28.27658 -4.29981,28.80645 -0.70518,2.32482 -2.54554,4.33535 -4.83387,5.28082 -1.45278,0.60024 -3.20651,0.7848 -4.79648,0.50476 z m 3.39026,-1.29826 c 2.35948,-0.62355 4.28013,-2.41189 5.04813,-4.7004 0.18793,-0.55998 0.16992,-0.4492 1.0026,-6.1662 0.34866,-2.39389 0.70869,-4.85849 0.80006,-5.47687 0.0914,-0.61839 0.14276,-1.1477 0.11421,-1.17625 -0.0285,-0.0285 -0.2612,0.003 -0.51699,0.0699 -0.63817,0.16714 -1.6873,0.30461 -1.7588,0.23044 -0.0316,-0.0328 -0.078,-0.19883 -0.10286,-0.36882 -0.053,-0.36207 -0.0988,-0.33538 0.83173,-0.48426 0.34721,-0.0555 0.73575,-0.13152 0.86343,-0.16882 0.40098,-0.11715 0.53161,-0.0889 0.60845,0.13153 0.0904,0.25941 0.17412,0.25312 0.22054,-0.0166 0.0205,-0.11878 0.69557,-4.7313 1.50027,-10.25005 0.8047,-5.51874 1.62522,-11.14048 1.82337,-12.49276 0.70996,-4.84493 0.79594,-5.47357 0.75434,-5.51517 -0.0232,-0.0232 -0.23209,0.0539 -0.46421,0.17151 -0.79926,0.40466 -2.53761,0.91396 -3.86512,1.13239 -0.57461,0.0945 -0.66214,0.0566 -0.62764,-0.27201 0.0154,-0.1474 0.0642,-0.17276 0.48237,-0.2509 2.09685,-0.39181 3.76442,-0.9629 4.39022,-1.50352 l 0.26134,-0.22577 0.0158,-1.15401 c 0.009,-0.63472 0.0749,-7.55325 0.14706,-15.37452 0.13101,-14.19984 0.16355,-17.59522 0.24501,-25.55711 0.0267,-2.60649 0.0194,-4.24113 -0.0191,-4.26486 -0.0343,-0.0212 -0.40488,0.0492 -0.82363,0.15629 -2.16203,0.55309 -4.82479,0.95218 -8.03774,1.20468 -1.49088,0.11717 -7.81697,0.1172 -9.30312,5e-5 -3.25604,-0.25665 -5.57376,-0.59798 -7.83187,-1.15336 -0.63865,-0.15707 -1.11161,-0.24287 -1.14651,-0.20797 -0.0349,0.0349 0.008,4.64957 0.10476,11.18636 0.0903,6.11984 0.24267,16.5394 0.33862,23.15458 0.13723,9.46123 0.19272,12.05596 0.26006,12.16051 0.22421,0.34807 1.48329,0.89756 2.82597,1.2333 3.09662,0.77431 7.34087,1.12166 11.99246,0.98145 1.05884,-0.0319 1.96532,-0.0426 2.01439,-0.0238 0.056,0.0215 0.0814,0.11485 0.0684,0.25066 l -0.0208,0.21643 -0.49839,0.0529 c -0.83857,0.0889 -5.90739,0.0841 -7.14347,-0.007 -3.95966,-0.29131 -6.7761,-0.82071 -8.55428,-1.60796 -0.31909,-0.14127 -0.59195,-0.23636 -0.60636,-0.21131 -0.0298,0.0518 -0.0649,-0.20494 1.04763,7.65418 0.45789,3.23449 1.28214,9.06556 1.83169,12.95792 0.54954,3.89236 1.01623,7.15876 1.03709,7.25868 0.0486,0.23298 0.39323,0.34162 1.55034,0.48875 0.46008,0.0585 0.8641,0.13261 0.89782,0.1647 0.0374,0.0356 0.0374,0.18189 0,0.3758 l -0.0613,0.31745 -0.46515,-0.0184 c -0.25584,-0.0101 -0.73398,-0.0613 -1.06254,-0.11364 -0.32856,-0.0524 -0.61987,-0.0727 -0.64736,-0.0452 -0.0275,0.0275 0.11282,1.19998 0.31179,2.60555 1.48943,10.52187 1.42739,10.15012 1.83731,11.00973 0.93943,1.97001 2.85065,3.35981 5.18491,3.77036 0.86577,0.15226 2.305,0.0934 3.14506,-0.12858 z m -3.91992,-1.55911 c -1.52381,-0.45057 -2.83983,-1.89393 -3.24569,-3.55974 -0.0623,-0.2557 -0.31813,-1.89968 -0.56851,-3.65331 -0.45855,-3.21153 -0.47373,-3.4284 -0.2501,-3.5706 0.13891,-0.0883 0.35401,-0.0559 0.46855,0.0707 0.0842,0.093 0.22355,0.90397 0.57377,3.33915 0.50382,3.5032 0.57587,3.87512 0.85924,4.4357 0.64883,1.28356 1.75253,2.12953 2.95411,2.26427 0.70737,0.0793 0.9233,0.29083 0.66844,0.6547 -0.0913,0.13031 -0.1597,0.14708 -0.58144,0.1426 -0.26291,-0.003 -0.65817,-0.0583 -0.87837,-0.12345 z m 4.00889,-13.29724 c -0.50465,-0.26652 -0.74279,-0.78929 -0.86361,-1.89585 -0.0931,-0.85291 0.004,-2.08148 0.20733,-2.6252 0.13705,-0.36631 0.42104,-0.69924 0.73578,-0.8626 0.22819,-0.11843 0.92436,-0.10348 1.1732,0.0252 0.30789,0.15921 0.603,0.53566 0.72486,0.92461 0.074,0.23633 0.12044,0.69472 0.14305,1.41302 0.0568,1.8057 -0.18018,2.65388 -0.83884,3.00175 -0.37381,0.19741 -0.92845,0.20567 -1.28177,0.0191 z m 1.08904,-0.6452 c 0.3067,-0.32863 0.3527,-0.59948 0.3527,-2.07659 0,-1.28624 -0.009,-1.3795 -0.15245,-1.6717 -0.10229,-0.20765 -0.22584,-0.3443 -0.37552,-0.41532 -0.27574,-0.13085 -0.39062,-0.13251 -0.62926,-0.009 -0.41255,0.21333 -0.5648,0.96822 -0.52332,2.59451 0.0238,0.93152 0.0451,1.09776 0.17225,1.34207 0.17875,0.34346 0.29458,0.41428 0.68185,0.41686 0.24659,0.002 0.33505,-0.0321 0.47375,-0.18072 z m -6.04652,0.63461 c -0.0583,-0.0583 -0.0797,-0.59205 -0.0797,-1.98642 0,-2.17618 0.063,-1.98734 -0.66284,-1.98734 -0.35142,0 -0.46162,-0.0235 -0.49294,-0.10512 -0.0945,-0.24617 0.002,-0.34646 0.41124,-0.42392 0.47995,-0.091 0.6584,-0.2283 0.79435,-0.61115 0.0825,-0.23231 0.16003,-0.3385 0.26669,-0.36528 0.34775,-0.0873 0.34801,-0.0852 0.34801,2.76288 0,1.96209 -0.0204,2.65701 -0.0797,2.71635 -0.0438,0.0438 -0.15749,0.0797 -0.25251,0.0797 -0.095,0 -0.20866,-0.0359 -0.25252,-0.0797 z m 2.60018,0.0282 c -0.12204,-0.0776 -0.16898,-0.36764 -0.0922,-0.56957 0.0634,-0.16657 0.0967,-0.18205 0.35255,-0.16353 0.28211,0.0204 0.28265,0.021 0.30328,0.30777 0.0114,0.15803 -0.0147,0.32997 -0.0579,0.38209 -0.0836,0.10072 -0.37599,0.12572 -0.50565,0.0432 z m -1.61671,-13.67118 c -1.56375,-0.1604 -4.34652,-0.51507 -4.50779,-0.57452 -0.14044,-0.0518 -0.15092,-0.0842 -0.10978,-0.33912 0.0755,-0.46805 0.0568,-0.46426 1.3955,-0.28295 2.5678,0.34776 3.81797,0.45838 5.2156,0.4615 1.42258,0.003 2.05404,-0.0667 4.11996,-0.45582 0.936,-0.1763 0.95693,-0.17067 1.02911,0.27666 0.0559,0.34637 0.0331,0.3589 -0.99589,0.54651 -2.42373,0.44191 -4.31849,0.55526 -6.14671,0.36774 z m 3.97942,-8.56 c -0.53282,-0.19832 -0.78837,-0.50185 -0.89148,-1.05889 -0.0539,-0.29112 0.0408,-0.44781 0.27054,-0.44781 0.25979,0 0.36276,0.0727 0.36302,0.2563 3.3e-4,0.24135 0.23009,0.59736 0.43604,0.67566 0.34327,0.13051 0.6254,0.0796 0.8602,-0.15518 0.27684,-0.27685 0.3888,-0.67977 0.34822,-1.25318 -0.0383,-0.54111 -0.19868,-0.84281 -0.5364,-1.00899 -0.33257,-0.16367 -0.64438,-0.10157 -0.97081,0.19334 -0.2558,0.23111 -0.42304,0.27736 -0.59941,0.16579 -0.0837,-0.0529 -0.0765,-0.2355 0.0541,-1.37784 0.0828,-0.72425 0.17326,-1.34 0.2011,-1.36833 0.0278,-0.0283 0.55671,-0.0433 1.17528,-0.0332 l 1.12469,0.0183 v 0.23258 0.23257 l -0.87522,0.0332 c -0.48137,0.0183 -0.89142,0.0496 -0.91122,0.0695 -0.0703,0.0709 -0.23756,1.28884 -0.18428,1.34212 0.0298,0.0298 0.14151,0.009 0.24826,-0.047 0.24073,-0.12554 0.82442,-0.13197 1.11096,-0.0123 0.48856,0.20414 0.84408,0.88044 0.84408,1.6057 0,0.87265 -0.32183,1.59313 -0.82715,1.85173 -0.32189,0.16473 -0.91784,0.20602 -1.24047,0.0859 z m -5.01127,-0.12785 c -0.017,-0.0457 -0.0385,-0.9353 -0.0477,-1.97692 l -0.0168,-1.89385 -0.52474,-0.0332 c -0.40321,-0.0255 -0.54163,-0.0602 -0.59772,-0.14951 -0.12003,-0.19127 0.0313,-0.34279 0.39446,-0.39497 0.47914,-0.0688 0.7104,-0.2762 0.89354,-0.80116 0.0499,-0.14303 0.10587,-0.18273 0.25764,-0.18273 0.1155,0 0.21019,0.0425 0.23422,0.10511 0.0527,0.13725 0.0527,5.16794 0,5.3052 -0.0495,0.12904 -0.54612,0.14751 -0.59281,0.0221 z m 2.54305,-0.0419 c -0.0189,-0.0723 -0.0141,-0.23081 0.0107,-0.35216 0.043,-0.21013 0.0592,-0.22062 0.34143,-0.22062 h 0.2963 v 0.33226 0.33225 l -0.30703,0.0199 c -0.25932,0.0168 -0.31237,-6.4e-4 -0.34142,-0.11163 z m -7.3921,-2.9619 c -1.34673,-0.23814 -2.83655,-0.62605 -2.91943,-0.76016 -0.0588,-0.0952 0.16788,-0.67164 0.26422,-0.67164 0.0495,0 0.54756,0.11802 1.1068,0.26229 0.55924,0.14427 1.4205,0.3255 1.91389,0.40275 1.34673,0.21086 1.22004,0.15608 1.17197,0.50677 -0.0227,0.16562 -0.0582,0.32855 -0.0789,0.36207 -0.0592,0.0958 -0.52279,0.0634 -1.45851,-0.10208 z m 15.35356,-0.0308 c -0.0207,-0.0336 -0.0562,-0.19645 -0.0789,-0.36207 -0.0382,-0.27841 -0.0294,-0.30371 0.1168,-0.33546 0.0869,-0.0189 0.47206,-0.0956 0.85581,-0.17038 0.38375,-0.0748 1.03816,-0.22537 1.45424,-0.33456 0.41607,-0.10918 0.79643,-0.19851 0.84523,-0.19851 0.12817,0 0.30115,0.60746 0.20196,0.70922 -0.092,0.0944 -1.04715,0.35305 -2.15362,0.58318 -0.86504,0.17991 -1.18036,0.20749 -1.24149,0.10858 z m -8.30976,-9.5486 c -2.07274,-0.16302 -5.61852,-0.60344 -5.72788,-0.71145 -0.10218,-0.10092 -0.0343,-0.64214 0.0864,-0.68844 0.0481,-0.0184 0.82875,0.0576 1.73481,0.16914 4.76836,0.58672 5.33778,0.58436 8.74593,-0.0363 0.83682,-0.1524 0.99384,-0.16521 1.04333,-0.0851 0.0911,0.14748 0.15132,0.6019 0.0881,0.66514 -0.0694,0.0694 -2.01763,0.42133 -3.10805,0.56148 -0.82651,0.10624 -2.29138,0.17049 -2.86257,0.12556 z m 3.29748,-7.46847 c -0.44691,-0.10551 -0.79095,-0.48877 -0.97887,-1.09043 -0.1413,-0.45244 -0.20073,-2.16696 -0.0979,-2.82635 0.17164,-1.1012 0.65104,-1.66496 1.41583,-1.66496 0.71636,0 1.1697,0.35582 1.39199,1.09256 0.21974,0.72821 0.1707,2.91254 -0.0804,3.58377 -0.28391,0.75883 -0.88194,1.08688 -1.65056,0.90541 z m 0.78396,-0.70335 c 0.34346,-0.289 0.43339,-0.72967 0.42839,-2.099 -0.005,-1.32146 -0.0735,-1.68863 -0.37177,-1.98688 -0.15696,-0.15695 -0.25173,-0.19445 -0.4914,-0.19445 -0.38174,0 -0.57707,0.18654 -0.72378,0.69118 -0.15912,0.54736 -0.12082,3.02854 0.0517,3.34402 0.23326,0.42676 0.75402,0.54208 1.10693,0.24513 z m -5.99428,0.59589 c -0.0261,-0.0261 -0.0475,-0.87731 -0.0475,-1.89157 0,-1.01426 -0.0182,-1.89141 -0.0403,-1.94923 -0.0315,-0.0821 -0.14412,-0.10533 -0.515,-0.10612 -0.56247,-10e-4 -0.65886,-0.0479 -0.62949,-0.30523 0.0168,-0.14763 0.0604,-0.19701 0.18806,-0.21317 0.61904,-0.0784 0.91975,-0.29055 1.05591,-0.74499 0.0754,-0.25184 0.097,-0.27031 0.29356,-0.25128 l 0.21212,0.0205 v 2.72448 2.72449 l -0.23495,0.0198 c -0.12922,0.0109 -0.25631,-0.002 -0.28241,-0.0277 z m 2.50438,-0.0515 c -0.0196,-0.051 -0.0261,-0.20797 -0.0145,-0.34887 0.021,-0.25506 0.0224,-0.25626 0.33668,-0.27643 l 0.31564,-0.0203 v 0.36912 0.36912 h -0.30111 c -0.19627,0 -0.3135,-0.0323 -0.33669,-0.0927 z m 8.41104,-2.76751 c -0.04,-0.0746 -0.0634,-0.24614 -0.0522,-0.38109 l 0.0205,-0.24538 0.88021,-0.17719 c 0.48412,-0.0975 1.09358,-0.24199 1.35436,-0.32121 0.2908,-0.0883 0.49794,-0.12022 0.53567,-0.0825 0.0339,0.0339 0.0524,0.22247 0.0411,0.41918 l -0.0204,0.35765 -0.43193,0.11815 c -0.49955,0.13664 -1.99326,0.44809 -2.14906,0.44809 -0.0581,0 -0.13829,-0.0611 -0.17823,-0.13571 z m -15.91348,-0.10288 c -1.75854,-0.32834 -3.9625,-0.95587 -4.09179,-1.16506 -0.0555,-0.0899 0.10686,-0.59603 0.21217,-0.66112 0.0386,-0.0239 0.39143,0.0697 0.78392,0.20792 0.84535,0.29777 2.01529,0.59148 3.28561,0.82484 0.50647,0.093 0.94845,0.18622 0.98218,0.20707 0.0664,0.0411 0.0107,0.45357 -0.0867,0.6422 -0.0724,0.14033 -0.0202,0.14302 -1.08535,-0.0558 z m 5.94736,-9.2689 c -1.12345,-0.0698 -2.40914,-0.22234 -3.6548,-0.4337 -1.3109,-0.22243 -1.21805,-0.17872 -1.16399,-0.54799 0.0249,-0.16999 0.0727,-0.33749 0.10624,-0.37221 0.0384,-0.0397 0.4735,0.004 1.17403,0.11831 2.2779,0.37134 2.66386,0.40457 4.70141,0.40471 2.04534,0 2.53449,-0.0432 4.56283,-0.40455 0.53597,-0.0955 1.01814,-0.15683 1.07149,-0.13636 0.0948,0.0363 0.22584,0.62229 0.15501,0.69312 -0.0548,0.0548 -1.1137,0.26067 -2.10131,0.40859 -1.75882,0.26343 -3.44569,0.35736 -4.85091,0.27008 z m 4.1864,-8.82871 c -0.65558,-0.13228 -1.09243,-0.64004 -1.05023,-1.2207 0.0192,-0.26466 0.0318,-0.27978 0.24989,-0.30052 0.25659,-0.0244 0.40164,0.10767 0.40164,0.36574 0,0.0838 0.0873,0.25004 0.1939,0.36939 0.17016,0.19045 0.23472,0.21702 0.52724,0.21702 0.27768,0 0.3671,-0.0323 0.53552,-0.1937 0.2624,-0.2514 0.35292,-0.54034 0.35292,-1.12654 0,-0.58477 -0.13077,-0.92346 -0.42608,-1.10351 -0.37413,-0.2281 -0.80238,-0.16254 -1.08383,0.16592 -0.16772,0.19575 -0.42931,0.26383 -0.5801,0.15098 -0.10866,-0.0813 -0.10653,-0.15815 0.039,-1.40439 0.10858,-0.93021 0.18155,-1.33587 0.24785,-1.37784 0.119,-0.0753 2.05731,-0.0786 2.17548,-0.004 0.0529,0.0335 0.0794,0.14571 0.0665,0.2814 l -0.0215,0.2256 -0.84072,0.0186 c -0.56138,0.0124 -0.86264,0.0455 -0.90669,0.0997 -0.0795,0.0977 -0.25471,1.2908 -0.19794,1.34757 0.022,0.022 0.12063,-0.0129 0.21921,-0.0775 0.12416,-0.0814 0.30979,-0.11744 0.60401,-0.11744 0.36399,0 0.46515,0.0283 0.707,0.19815 0.44846,0.31485 0.60548,0.66851 0.63663,1.43385 0.0341,0.83769 -0.10005,1.29847 -0.49214,1.69056 -0.20893,0.20894 -0.35923,0.29364 -0.62048,0.34966 -0.37533,0.0805 -0.3946,0.0808 -0.73693,0.0118 z m -5.1357,-0.11183 c -0.0261,-0.0261 -0.0479,-0.88723 -0.0485,-1.91362 -5.3e-4,-1.02639 -0.0239,-1.90217 -0.0519,-1.94617 -0.0308,-0.0484 -0.26002,-0.0878 -0.58043,-0.0997 l -0.52958,-0.0196 v -0.23258 c 0,-0.19818 0.0246,-0.23569 0.16613,-0.25362 0.61739,-0.0782 0.91978,-0.29062 1.05474,-0.74107 0.0737,-0.246 0.0991,-0.26788 0.31091,-0.26788 h 0.23065 l -0.0173,2.7411 -0.0173,2.7411 -0.23495,0.0198 c -0.12923,0.0109 -0.25632,-0.001 -0.28242,-0.0277 z m 2.50586,-0.0477 c -0.0204,-0.0531 -0.0276,-0.21181 -0.016,-0.35272 0.021,-0.25552 0.0219,-0.25623 0.34028,-0.27657 l 0.31925,-0.0204 -0.0202,0.35265 -0.0202,0.35266 -0.28302,0.0205 c -0.20049,0.0145 -0.29383,-0.008 -0.32007,-0.0761 z m 8.41569,-2.95926 c -0.0391,-0.073 -0.0711,-0.252 -0.0711,-0.3977 0,-0.31151 -0.11455,-0.27278 1.42869,-0.48305 1.50193,-0.20464 1.44996,-0.2075 1.498,0.0825 0.0866,0.52259 0.0139,0.55699 -1.59768,0.75619 -0.45685,0.0565 -0.91078,0.11891 -1.00875,0.13875 -0.13338,0.027 -0.19597,0.003 -0.24919,-0.0967 z m -15.98606,-0.15525 c -1.85286,-0.35927 -2.42987,-0.48313 -3.07094,-0.65926 -0.40984,-0.1126 -0.77593,-0.24179 -0.81354,-0.2871 -0.0951,-0.11457 0.10816,-0.70123 0.24294,-0.70123 0.0552,0 0.34398,0.0729 0.64164,0.16203 0.54771,0.16397 1.57277,0.39065 2.96668,0.65602 l 0.76418,0.14548 0.0199,0.2031 c 0.0109,0.1117 -0.0107,0.28364 -0.0482,0.38209 -0.0749,0.19711 -0.14509,0.20698 -0.70263,0.0989 z m 11.36311,-11.81749 c 3.0524,-0.14957 5.69673,-0.48412 8.16076,-1.03248 2.78024,-0.61873 4.9934,-1.64038 5.3375,-2.46394 0.10863,-0.25998 0.12341,-1.01933 0.0198,-1.01933 -0.0391,0 -0.20631,0.093 -0.37156,0.20674 -1.01242,0.69656 -3.41115,1.49825 -5.93663,1.98409 -1.80505,0.34725 -4.60747,0.66867 -6.94626,0.79669 -1.62102,0.0887 -5.74212,0.089 -7.37391,4e-4 -5.09377,-0.2764 -9.49843,-1.12027 -11.98441,-2.29604 -0.41481,-0.19619 -0.9008,-0.46203 -1.07998,-0.59076 -0.17917,-0.12869 -0.3556,-0.23401 -0.39206,-0.23401 -0.0883,0 -0.0856,0.71118 0.003,0.76591 0.0381,0.0235 0.11607,0.15982 0.17329,0.30283 0.16936,0.42327 0.74226,0.88502 1.64441,1.32533 3.54306,1.72928 11.0473,2.63181 18.74604,2.25457 z m 0,-2.32324 c 6.39842,-0.3352 11.53133,-1.52957 13.23496,-3.07965 0.34888,-0.31743 0.35424,-0.32803 0.35424,-0.70104 0,-0.63887 -0.42816,-1.11165 -1.49515,-1.65098 -2.2026,-1.11336 -6.07639,-1.92774 -11.16375,-2.34694 -1.38131,-0.11382 -5.99314,-0.15541 -7.64185,-0.0689 -6.51588,0.34186 -11.7213,1.5461 -13.25197,3.06574 -0.65868,0.65393 -0.68951,0.70077 -0.6389,0.97053 0.0605,0.3225 0.60233,0.89005 1.17383,1.22958 2.2635,1.34472 6.90547,2.27823 12.94962,2.6042 0.95645,0.0516 5.35631,0.0363 6.47897,-0.0226 z m -6.41252,-0.67046 c -5.48942,-0.28195 -9.63547,-1.32841 -10.44358,-2.63595 -0.4379,-0.70854 -0.18005,-1.40923 0.72451,-1.96876 0.85434,-0.52846 2.92819,-1.07822 5.42914,-1.43923 0.48206,-0.0696 0.53528,-0.0659 0.61467,0.0427 0.0963,0.13169 0.11866,0.5976 0.0313,0.65161 -0.0306,0.0189 -0.62118,0.12613 -1.31241,0.23827 -3.00048,0.48679 -4.87834,1.18037 -4.87834,1.80182 0,0.19581 0.36278,0.55374 0.79441,0.7838 l 0.40038,0.2134 0.71501,-0.23008 c 5.36456,-1.72622 16.78875,-1.69725 21.94248,0.0557 l 0.49273,0.1676 0.30365,-0.14699 c 0.167,-0.0808 0.43073,-0.26412 0.58606,-0.40729 0.34124,-0.31452 0.36921,-0.53717 0.10117,-0.80521 -1.05739,-1.05739 -5.14611,-1.82686 -10.31799,-1.94177 -0.99784,-0.0222 -1.79694,-0.0676 -1.84401,-0.10492 -0.0457,-0.0362 -0.0831,-0.19303 -0.0831,-0.34855 0,-0.15552 0.0374,-0.31038 0.0831,-0.34414 0.10004,-0.0739 3.25908,-6.4e-4 4.60173,0.10671 5.62616,0.45001 8.60757,1.49934 8.60436,3.02837 -6.3e-4,0.26663 -0.31534,0.80871 -0.60539,1.04256 -1.4647,1.18084 -5.14936,1.98503 -10.29153,2.24614 -1.47672,0.075 -4.12934,0.0723 -5.64833,-0.006 z m 5.41575,-0.79312 c 2.79267,-0.12917 5.01189,-0.4044 7.0306,-0.87195 0.36495,-0.0845 0.57556,-0.16431 0.5601,-0.21218 -0.0303,-0.0939 -0.66477,-0.25962 -1.80948,-0.47259 -4.54551,-0.84567 -11.21467,-0.88702 -15.94821,-0.0989 -0.95762,0.15945 -2.1813,0.42987 -2.33539,0.5161 -0.10139,0.0567 -0.0996,0.0686 0.0201,0.13262 0.0723,0.0387 0.56298,0.15958 1.09046,0.26866 3.16469,0.65445 7.34562,0.92539 11.39183,0.73824 z m -29.6324,0.58348 1.65658,-0.48177 2.99029,0.005 c 1.68239,0.003 3.2664,0.0364 3.62157,0.077 0.50518,0.0577 0.65119,0.0548 0.73096,-0.0146 0.0548,-0.0477 0.15949,-0.0977 0.23258,-0.11115 0.11673,-0.0214 0.1329,-0.0768 0.1329,-0.4554 v -0.43102 l -0.86386,0.0202 c -6.72272,0.15745 -6.63921,0.1505 -8.26073,0.68723 -0.70894,0.23467 -1.29146,0.39164 -1.39547,0.37602 -0.24244,-0.0364 -5.182479,-2.962 -5.297062,-3.13705 -0.05025,-0.0768 -0.118179,-0.46173 -0.151279,-0.85725 -0.03304,-0.39487 -0.08688,-0.742 -0.119621,-0.77141 -0.16661,-0.14963 -2.221407,-1.53417 -2.276858,-1.53417 -0.0355,0 -0.114575,0.15059 -0.175711,0.33466 -0.08662,0.26078 -0.09376,0.35562 -0.03234,0.42963 0.04335,0.0522 0.397472,0.33365 0.786937,0.62536 l 0.708118,0.5304 0.526891,1.16687 c 0.289791,0.64178 0.577218,1.21241 0.638726,1.26808 0.117333,0.10619 4.781019,2.75524 4.850629,2.75524 0.0221,0 0.78562,-0.21679 1.69674,-0.48177 z m 0.0302,-1.50268 c 0.92097,-0.30947 0.96128,-0.33054 0.94956,-0.49631 -0.01,-0.14062 0.12416,-0.30288 0.71435,-0.86445 0.53183,-0.50603 0.72612,-0.73367 0.72488,-0.84932 -6.3e-4,-0.0869 -0.0981,-0.44189 -0.21596,-0.78887 l -0.21428,-0.63087 -0.75195,-0.32781 -0.75195,-0.3278 -1.69138,1.68964 c -0.95877,0.95777 -1.68331,1.7328 -1.67274,1.7893 0.0206,0.11034 1.685,1.1282 1.84626,1.1291 0.0558,3.3e-4 0.53422,-0.14487 1.06321,-0.32261 z m 4.98207,-0.60103 c 1.334,-0.0379 2.85466,-0.088 3.37924,-0.11123 l 0.95378,-0.0422 -0.0416,-0.20783 c -0.0229,-0.11431 -0.0783,-0.24266 -0.12315,-0.28522 -0.0482,-0.0457 -0.5445,-0.10818 -1.21124,-0.15253 -1.44092,-0.0958 -3.00769,-0.24708 -3.84466,-0.37113 -0.36027,-0.0534 -0.69311,-0.075 -0.73966,-0.0479 -0.17892,0.10391 -1.29659,1.20944 -1.29659,1.28251 0,0.0511 0.0838,0.0648 0.24919,0.0408 0.13706,-0.0199 1.34065,-0.0672 2.67465,-0.10514 z m -6.82832,-2.18187 c 0.90484,-0.90429 1.64515,-1.67694 1.64515,-1.71702 0,-0.0401 -0.54442,-0.30529 -1.20983,-0.58939 l -1.20982,-0.51654 -1.10593,0.44832 -1.105922,0.44832 -1.677502,-0.94998 c -0.922626,-0.52249 -1.693643,-0.99204 -1.713371,-1.04345 -0.02254,-0.0587 0.27283,-0.39437 0.794618,-0.90297 0.889218,-0.86675 1.464832,-1.59159 1.856745,-2.3381 0.534666,-1.01842 0.762081,-2.10728 0.642669,-3.077097 -0.08513,-0.69143 -0.146416,-0.74165 -0.559636,-0.45862 -2.862107,1.960347 -4.430605,2.966297 -4.848055,3.109267 -0.653689,0.22387 -1.858384,0.22455 -2.722207,0.001 -2.208736,-0.5703 -4.46835,-1.97875 -6.615802,-4.123787 -2.105068,-2.10269 -3.707024,-4.46985 -4.874181,-7.20244 -1.575966,-3.6897 -1.835851,-6.96504 -0.727331,-9.16658 0.404368,-0.80309 0.881392,-1.20509 3.562121,-3.00188 1.30659,-0.87576 2.375618,-1.62759 2.375618,-1.67074 0,-0.0889 -3.372591,-2.73668 -3.703892,-2.90792 -0.618489,-0.31969 -2.192021,-0.2764 -3.694058,0.10163 -1.592484,0.40078 -3.525817,1.2364 -4.280538,1.85011 -0.732663,0.59577 -0.861785,-0.10298 1.185791,6.41697 0.985996,3.13964 1.784101,5.76624 1.773564,5.83689 -0.01279,0.0857 -0.116721,0.16086 -0.312391,0.22586 -0.261266,0.0868 -0.301415,0.0862 -0.368278,-0.005 -0.04127,-0.0564 -0.864788,-2.61726 -1.830031,-5.69069 -1.332639,-4.24327 -1.779735,-5.58807 -1.857825,-5.58806 -0.178477,0 -0.734123,0.80884 -0.734123,1.06864 0,0.33193 1.423194,5.13409 2.322251,7.83577 1.38944,4.17529 2.373125,6.47727 4.074811,9.5357 1.562083,2.80752 2.695206,4.381307 4.467582,6.205027 1.383134,1.4232 2.6263,2.4573 4.186478,3.48246 2.41168,1.58465 4.929672,2.57269 6.556435,2.57269 0.513926,0 1.423048,-0.29443 1.561481,-0.5057 0.176087,-0.26875 0.09458,-0.38418 -0.310693,-0.44004 -3.314804,-0.45681 -6.945458,-2.46835 -10.225935,-5.6656 -2.685772,-2.617637 -4.529964,-5.240447 -6.363129,-9.049647 -0.304978,-0.63373 -0.554506,-1.21217 -0.554506,-1.28542 0,-0.15804 0.559359,-0.4647 0.657906,-0.36069 0.03288,0.0347 0.229833,0.43688 0.437674,0.89373 0.468939,1.03077 1.441913,2.86189 2.012604,3.7877 2.364815,3.83635 5.696921,7.127527 9.256879,9.143187 1.590462,0.90053 3.343543,1.52699 4.745488,1.69579 1.227931,0.14784 1.133917,0.10586 2.791485,1.24665 1.711749,1.17808 1.678886,1.13996 1.69737,1.96873 0.0057,0.25583 0.03001,0.53499 0.054,0.62034 0.03162,0.11247 0.335307,0.32738 1.103329,0.78079 0.582836,0.3441 1.090777,0.62563 1.128767,0.62563 0.038,0 0.80937,-0.73988 1.71421,-1.64417 z M 76.623623,81.579863 c -0.454724,-0.78982 -1.644208,-3.02464 -1.644208,-3.08915 0,-0.0831 1.280336,-0.99965 1.89385,-1.35578 0.557795,-0.32379 1.364104,-0.64838 1.88471,-0.75873 0.46546,-0.0987 2.443486,-0.13322 2.572272,-0.0449 0.104878,0.0719 1.291018,1.8482 1.291018,1.93337 0,0.04 -0.07491,0.12177 -0.16646,0.18176 -0.219838,0.14404 -0.250575,0.11562 -0.873069,-0.80731 -0.303428,-0.44988 -0.561938,-0.76462 -0.646684,-0.78736 -0.235034,-0.0631 -1.441938,-0.0433 -1.900855,0.0312 -0.777432,0.12613 -1.807959,0.61672 -2.819201,1.3421 -0.215856,0.15484 -0.422204,0.32938 -0.458552,0.38788 -0.05099,0.0821 0.110733,0.42998 0.708108,1.52332 0.425806,0.77933 0.774193,1.44584 0.774193,1.48113 0,0.0904 -0.211427,0.24033 -0.342553,0.24285 -0.06086,0.001 -0.182595,-0.12403 -0.272569,-0.28031 z m 16.332064,20.278257 c 0.21516,-0.0398 0.55706,-0.15723 0.759776,-0.26101 0.532485,-0.27261 3.225964,-2.117527 3.225964,-2.209657 0,-0.0451 -0.209378,-0.11261 -0.498381,-0.16072 -0.27411,-0.0456 -0.741982,-0.15868 -1.039716,-0.25122 -0.297733,-0.0925 -0.583576,-0.16826 -0.635207,-0.16826 -0.05163,0 -0.733253,0.43359 -1.514719,0.96354 -1.201796,0.814987 -1.459126,0.963527 -1.669138,0.963527 -0.429117,0 -0.670415,-0.46947 -0.407452,-0.792737 0.06396,-0.0786 0.607785,-0.47815 1.208501,-0.88784 0.600716,-0.40968 1.103041,-0.77913 1.116278,-0.821 0.01324,-0.0419 -0.205683,-0.21561 -0.486487,-0.38609 -2.10464,-1.27776 -4.461977,-3.63748 -6.164062,-6.1703 -2.850543,-4.2418 -4.118411,-8.81309 -3.325566,-11.99032 0.057,-0.22842 0.09272,-0.44806 0.07937,-0.48809 -0.03622,-0.10866 -3.209308,2.04201 -3.638254,2.46595 -0.411965,0.40715 -0.793484,1.10662 -0.959969,1.75998 -0.469683,1.84326 -0.11279,4.39205 0.993061,7.09207 1.880205,4.59065 5.278981,8.52321 8.999447,10.412817 1.562512,0.7936 2.940293,1.11723 3.95655,0.92936 z m 5.376877,-3.462077 c 0.412552,-0.10364 1.101046,-0.52236 1.445086,-0.87885 1.14344,-1.18485 1.38266,-3.77226 0.61185,-6.61759 -0.596007,-2.20004 -1.872751,-4.80709 -3.38445,-6.91089 -1.92627,-2.68075 -4.346412,-4.86331 -6.554205,-5.91079 -0.861021,-0.40851 -1.377808,-0.57775 -2.193344,-0.71827 -1.981087,-0.34136 -3.438822,0.63737 -3.984514,2.67523 -0.117728,0.43965 -0.143191,0.72702 -0.1472,1.66127 -0.0051,1.20365 0.04972,1.64747 0.357477,2.89061 1.041597,4.20739 3.999596,8.75771 7.507573,11.54897 2.290571,1.82258 4.685799,2.67629 6.341727,2.26031 z m -2.088871,-1.41608 c -4.129637,-0.83254 -9.239775,-6.85976 -10.632217,-12.54031 -0.59932,-2.44497 -0.320287,-4.40316 0.775039,-5.43907 0.65196,-0.6166 1.478946,-0.85531 2.516448,-0.72639 0.602252,0.0748 1.476622,0.35492 2.124337,0.68049 0.519553,0.26114 1.587627,0.96563 2.111213,1.39253 0.944518,0.7701 2.394123,2.29311 3.174238,3.33497 l 0.292923,0.3912 -0.258513,0.22347 c -0.142181,0.1229 -0.294792,0.22346 -0.339133,0.22346 -0.04434,0 -0.209129,-0.17194 -0.366195,-0.38209 -1.288871,-1.72449 -3.222578,-3.497 -4.658486,-4.27015 -1.089669,-0.58671 -1.779992,-0.79676 -2.618327,-0.79668 -0.444483,5e-5 -0.591685,0.0305 -0.93665,0.19368 -2.183843,1.03314 -1.577751,5.74132 1.33092,10.33873 1.701631,2.68958 4.005518,4.96727 6.085016,6.01583 0.71955,0.36282 1.166406,0.51059 1.820903,0.60215 0.627636,0.0878 1.174292,-0.0121 1.625914,-0.29722 0.677078,-0.42742 1.075761,-1.33208 1.075761,-2.44102 0,-0.62269 0.06009,-0.72332 0.431931,-0.72332 0.402865,0 0.456135,0.11474 0.396045,0.85311 -0.099,1.21668 -0.444648,2.08041 -1.068688,2.6706 -0.737504,0.6975 -1.710166,0.93237 -2.882479,0.69603 z m -1.617218,-2.47541 c -0.01663,-0.0274 -0.112513,-0.36381 -0.213068,-0.74757 -0.940972,-3.59111 -3.968167,-8.0087 -6.898704,-10.0673 -0.312169,-0.21929 -0.582267,-0.434 -0.600218,-0.47714 -0.03558,-0.0855 0.323426,-0.6193 0.416514,-0.6193 0.03154,0 0.352805,0.21443 0.713929,0.47652 2.727432,1.97946 5.427248,5.63361 6.693273,9.05922 0.359704,0.97329 0.677674,2.15222 0.599463,2.22261 -0.07107,0.064 -0.478465,0.2028 -0.59511,0.2028 -0.04721,0 -0.09945,-0.0224 -0.116079,-0.0498 z"
       style="fill:#095d9d;stroke-width:0.0664506" />
  </g>
</svg>
